<svg class="tokenMcDelivery w-3/5 md:w-auto lg:w-3/4 xl:w-auto" version="1.1" id="Capa_1" xmlns="http://www.w3.org/2000/svg" xmlns:xlink="http://www.w3.org/1999/xlink" x="0px" y="0px" viewBox="0 0 327.78 332.66" xml:space="preserve" width="327.78"  height="332.66" ><g id="Layer_1"><g><g><g><path class="span0" d="M163.89,13.72c-84.29,0-152.61,68.33-152.61,152.61c0,84.29,68.33,152.61,152.61,152.61
					S316.5,250.61,316.5,166.33S248.18,13.72,163.89,13.72" fill="#E50C1C"></path><g><path class="span1" d="M197.4,86.56c13.17,0,23.84,55.51,23.84,123.99h19.08c0-73.74-19.22-133.52-42.92-133.52
						c-13.48,0-25.51,17.97-33.38,46.06c-7.87-28.1-19.9-46.06-33.38-46.06c-23.7,0-42.92,59.78-42.92,133.52h19.08
						c0-68.48,10.68-123.99,23.84-123.99c13.17,0,23.85,51.24,23.85,114.45h19.07C173.55,137.8,184.23,86.56,197.4,86.56" fill="#FBB900"></path><g><path class="span2" d="M126.39,246.6c0,2.5-2.03,4.53-4.53,4.53s-4.53-2.03-4.53-4.53s2.03-4.53,4.53-4.53
							C124.36,242.06,126.39,244.09,126.39,246.6" fill="#FFFFFF"></path><path class="span2" d="M143.31,249.6c0,2.5-2.03,4.53-4.53,4.53s-4.53-2.03-4.53-4.53s2.03-4.53,4.53-4.53
							S143.31,247.1,143.31,249.6" fill="#FFFFFF"></path><path class="span2" d="M160.23,250.86c0,2.5-2.03,4.53-4.53,4.53s-4.53-2.03-4.53-4.53s2.03-4.53,4.53-4.53
							S160.23,248.36,160.23,250.86" fill="#FFFFFF"></path><path class="span2" d="M177.15,250.86c0,2.5-2.03,4.53-4.53,4.53s-4.53-2.03-4.53-4.53s2.03-4.53,4.53-4.53
							S177.15,248.36,177.15,250.86" fill="#FFFFFF"></path><path class="span2" d="M194.07,249.6c0,2.5-2.03,4.53-4.53,4.53s-4.53-2.03-4.53-4.53s2.03-4.53,4.53-4.53
							C192.04,245.07,194.07,247.1,194.07,249.6" fill="#FFFFFF"></path><path class="span2" d="M210.99,246.6c0,2.5-2.03,4.53-4.53,4.53s-4.53-2.03-4.53-4.53s2.03-4.53,4.53-4.53
							C208.96,242.06,210.99,244.09,210.99,246.6" fill="#FFFFFF"></path><path class="span2" d="M97.43,229.51L97.43,229.51c4.53,0,8.21,3.68,8.21,8.21c0,2.19-0.86,4.25-2.41,5.81
							c-1.55,1.55-3.61,2.4-5.8,2.4c-4.53,0-8.21-3.68-8.21-8.21c0-2.19,0.85-4.25,2.41-5.8C93.18,230.36,95.24,229.51,97.43,229.51
							 M97.43,226.05c-6.45,0-11.67,5.23-11.67,11.67c0,6.45,5.23,11.67,11.67,11.67c6.45,0,11.67-5.23,11.67-11.67
							C109.1,231.27,103.88,226.05,97.43,226.05" fill="#FFFFFF"></path><path class="span2" d="M242.56,237.72c0,6.45-5.23,11.67-11.67,11.67c-6.45,0-11.67-5.23-11.67-11.67
							c0-6.45,5.23-11.67,11.67-11.67S242.56,231.27,242.56,237.72" fill="#FFFFFF"></path></g></g></g><path class="span0" d="M286.25,278.19c-0.82,0-1.54-0.17-2.16-0.52c-0.62-0.35-1.1-0.83-1.45-1.45c-0.35-0.62-0.52-1.34-0.52-2.17
				s0.17-1.56,0.52-2.17c0.35-0.62,0.83-1.1,1.45-1.45c0.62-0.35,1.34-0.52,2.16-0.52s1.54,0.17,2.16,0.52
				c0.62,0.35,1.1,0.83,1.45,1.45c0.35,0.62,0.52,1.34,0.52,2.17s-0.17,1.56-0.52,2.17c-0.35,0.62-0.83,1.1-1.45,1.45
				C287.79,278.01,287.07,278.19,286.25,278.19 M286.25,277.16c0.9,0,1.61-0.28,2.14-0.83c0.53-0.56,0.79-1.32,0.79-2.28
				c0-0.98-0.27-1.74-0.79-2.3c-0.53-0.56-1.24-0.83-2.14-0.83c-0.93,0-1.65,0.28-2.17,0.83c-0.51,0.56-0.77,1.32-0.77,2.3
				c0,0.97,0.26,1.73,0.77,2.28C284.6,276.88,285.32,277.16,286.25,277.16 M284.6,276.06v-4.16h1.77c1.1,0,1.65,0.42,1.65,1.26
				c0,0.27-0.09,0.49-0.27,0.66s-0.41,0.29-0.69,0.35c0.31,0.13,0.57,0.37,0.76,0.7c0.19,0.33,0.32,0.73,0.4,1.19h-1.21
				c-0.09-0.48-0.23-0.86-0.41-1.14c-0.19-0.28-0.45-0.41-0.8-0.41h-0.03v1.55H284.6z M286.17,272.66h-0.41v1.08h0.41
				c0.25,0,0.42-0.05,0.53-0.15s0.16-0.22,0.16-0.37c0-0.16-0.05-0.29-0.16-0.4C286.59,272.71,286.41,272.66,286.17,272.66" fill="#E50C1C"></path></g></g></g><g id="Layer_2" class="span3"><rect y="0" class="span4" width="327.78" height="332.66" fill="#030202"></rect></g></svg>