<svg xmlns:xlink="http://www.w3.org/1999/xlink" xmlns="http://www.w3.org/2000/svg" width="30" height="30" viewBox="0 0 30 30" fill="none">
<circle cx="15" cy="15" r="15" fill="#7F7F7F"/>
<path d="M22.5058 10.7389C22.3208 10.0549 21.7865 9.52065 21.1025 9.33557C19.8721 9 14.9199 9 14.9199 9C14.9199 9 9.96761 9.01017 8.73718 9.34574C8.05322 9.53082 7.51895 10.0651 7.33387 10.749C6.96169 12.9354 6.81729 16.2667 7.34404 18.3655C7.52912 19.0495 8.06339 19.5838 8.74735 19.7688C9.97778 20.1044 14.93 20.1044 14.93 20.1044C14.93 20.1044 19.8823 20.1044 21.1127 19.7688C21.7967 19.5838 22.3309 19.0495 22.516 18.3655C22.9085 16.1762 23.0295 12.8469 22.5058 10.7389Z" fill="white"/>
<path d="M13.3438 16.9317L17.452 14.5522L13.3438 12.1727V16.9317Z" fill="#7F7F7F"/>
</svg>