<svg xmlns:xlink="http://www.w3.org/1999/xlink" xmlns="http://www.w3.org/2000/svg" width="30" height="30" viewBox="0 0 30 30" fill="none">
<circle cx="15" cy="15" r="15" fill="#7F7F7F"/>
<path d="M15 7.62165C17.4031 7.62165 17.6877 7.6308 18.6367 7.6741C19.5142 7.71415 19.9908 7.86077 20.3079 7.98398C20.728 8.14725 21.0278 8.34231 21.3428 8.65723C21.6577 8.97215 21.8528 9.272 22.016 9.69206C22.1392 10.0092 22.2859 10.4858 22.3259 11.3632C22.3692 12.3123 22.3783 12.5969 22.3783 15C22.3783 17.4031 22.3692 17.6878 22.3259 18.6368C22.2859 19.5143 22.1392 19.9908 22.016 20.308C21.8528 20.728 21.6577 21.0279 21.3428 21.3428C21.0278 21.6577 20.728 21.8528 20.3079 22.016C19.9908 22.1393 19.5142 22.2859 18.6367 22.3259C17.6879 22.3692 17.4032 22.3784 15 22.3784C12.5967 22.3784 12.3121 22.3692 11.3632 22.3259C10.4857 22.2859 10.0092 22.1393 9.69206 22.016C9.27196 21.8528 8.97212 21.6577 8.6572 21.3428C8.34227 21.0279 8.14721 20.728 7.98398 20.308C7.86073 19.9908 7.71411 19.5143 7.67406 18.6368C7.63076 17.6878 7.62162 17.4031 7.62162 15C7.62162 12.5969 7.63076 12.3123 7.67406 11.3633C7.71411 10.4858 7.86073 10.0092 7.98398 9.69206C8.14721 9.272 8.34227 8.97215 8.6572 8.65723C8.97212 8.34231 9.27196 8.14725 9.69206 7.98398C10.0092 7.86077 10.4857 7.71415 11.3632 7.6741C12.3122 7.6308 12.5969 7.62165 15 7.62165ZM15 6C12.5557 6 12.2493 6.01036 11.2893 6.05416C10.3313 6.09789 9.67712 6.25001 9.10462 6.47251C8.51279 6.70251 8.01088 7.01025 7.51055 7.51058C7.01021 8.01092 6.70247 8.51283 6.47247 9.10466C6.24997 9.67716 6.09785 10.3314 6.05412 11.2893C6.01032 12.2493 6 12.5557 6 15C6 17.4443 6.01032 17.7508 6.05412 18.7107C6.09785 19.6687 6.24997 20.3229 6.47247 20.8954C6.70247 21.4872 7.01021 21.9891 7.51055 22.4895C8.01088 22.9898 8.51279 23.2975 9.10462 23.5275C9.67712 23.75 10.3313 23.9021 11.2893 23.9459C12.2493 23.9897 12.5557 24 15 24C17.4443 24 17.7507 23.9897 18.7107 23.9459C19.6686 23.9021 20.3228 23.75 20.8953 23.5275C21.4872 23.2975 21.9891 22.9898 22.4894 22.4895C22.9898 21.9891 23.2975 21.4872 23.5275 20.8954C23.75 20.3229 23.9021 19.6687 23.9458 18.7107C23.9896 17.7508 24 17.4443 24 15C24 12.5557 23.9896 12.2493 23.9458 11.2893C23.9021 10.3314 23.75 9.67716 23.5275 9.10466C23.2975 8.51283 22.9898 8.01092 22.4894 7.51058C21.9891 7.01025 21.4872 6.70251 20.8953 6.47251C20.3228 6.25001 19.6686 6.09789 18.7107 6.05416C17.7507 6.01036 17.4443 6 15 6ZM15 10.3784C12.4475 10.3784 10.3783 12.4476 10.3783 15C10.3783 17.5525 12.4475 19.6217 15 19.6217C17.5524 19.6217 19.6216 17.5525 19.6216 15C19.6216 12.4476 17.5524 10.3784 15 10.3784ZM15 18C13.3431 18 12 16.6569 12 15C12 13.3432 13.3431 12 15 12C16.6568 12 18 13.3432 18 15C18 16.6569 16.6568 18 15 18ZM20.8842 10.1958C20.8842 10.7923 20.4007 11.2758 19.8042 11.2758C19.2077 11.2758 18.7242 10.7923 18.7242 10.1958C18.7242 9.59931 19.2077 9.1158 19.8042 9.1158C20.4007 9.1158 20.8842 9.59931 20.8842 10.1958Z" fill="white"/>
</svg>