<svg xmlns:xlink="http://www.w3.org/1999/xlink" xmlns="http://www.w3.org/2000/svg" width="30" height="30" viewBox="0 0 30 30" fill="none">
<path d="M30 15C30 23.2843 23.2843 30 15 30C6.71573 30 0 23.2843 0 15C0 6.71573 6.71573 0 15 0C23.2843 0 30 6.71573 30 15Z" fill="#7F7F7F"/>
<path d="M23.5757 13.0879C23.4119 13.1038 23.2474 13.1121 23.0828 13.1129C22.1942 13.113 21.3195 12.8918 20.5377 12.4693C19.756 12.0469 19.0917 11.4363 18.605 10.6929V18.9336C18.605 20.1382 18.2477 21.3158 17.5785 22.3174C16.9092 23.319 15.958 24.0997 14.8451 24.5607C13.7321 25.0217 12.5075 25.1423 11.326 24.9073C10.1445 24.6723 9.05926 24.0922 8.20745 23.2404C7.35565 22.3886 6.77557 21.3033 6.54056 20.1218C6.30555 18.9404 6.42616 17.7157 6.88715 16.6028C7.34815 15.4899 8.12881 14.5386 9.13042 13.8694C10.132 13.2001 11.3096 12.8429 12.5142 12.8429C12.6414 12.8429 12.7657 12.8543 12.8907 12.8622V15.8636C12.7657 15.8486 12.6428 15.8257 12.5142 15.8257C11.6898 15.8257 10.8991 16.1533 10.3161 16.7362C9.73318 17.3192 9.40567 18.1099 9.40567 18.9343C9.40567 19.7588 9.73318 20.5494 10.3161 21.1324C10.8991 21.7154 11.6898 22.0429 12.5142 22.0429C14.2314 22.0429 15.7478 20.69 15.7478 18.9729L15.7778 4.97717H18.6492C18.7804 6.22481 19.346 7.38663 20.2471 8.25949C21.1481 9.13235 22.3274 9.66071 23.5785 9.75217V13.0879" fill="white"/>
</svg>