<svg xmlns:xlink="http://www.w3.org/1999/xlink" width="21" height="24" viewBox="0 0 21 24" fill="none" xmlns="http://www.w3.org/2000/svg" class="inline-block h-5 w-auto mr-2"><path d="M19.2696 7.59553C18.9591 7.50733 18.6272 7.52938 18.2525 7.48529V7.08842C18.2525 5.98602 18.2525 4.89465 18.2525 3.79225C18.2525 3.13081 18.049 2.92136 17.428 2.91033C16.9891 2.91033 16.5608 2.91033 16.0683 2.91033C16.0683 2.61268 16.079 2.35913 16.0683 2.12763C16.0469 1.68667 15.8327 1.47721 15.4045 1.46619C15.1689 1.45517 14.9227 1.46619 14.6871 1.46619C13.9163 1.46619 13.9163 1.46619 13.8841 0.683487C13.8734 0.308672 13.7021 0.033072 13.3595 0.022048C12.4066 -0.011024 11.4537 0.011024 10.458 0.011024V1.44414C10.2867 1.45517 10.1475 1.46619 10.019 1.46619C9.87985 1.46619 9.72996 1.45517 9.54794 1.44414C9.54794 1.17957 9.55865 0.948063 9.54794 0.716559C9.53724 0.2756 9.3124 0.011024 8.89484 0C8.1882 0 7.48156 0 6.77492 0.011024C6.36807 0.022048 6.15393 0.2756 6.13252 0.694511C6.12181 0.937039 6.13252 1.17957 6.13252 1.47721C5.59719 1.47721 5.10468 1.46619 4.61218 1.47721C4.18391 1.48824 3.98048 1.70872 3.95907 2.13865C3.94836 2.38118 3.95907 2.62371 3.95907 2.92136C3.46657 2.92136 3.02759 2.91033 2.58862 2.92136C1.95693 2.93238 1.78562 3.10876 1.77491 3.75918C1.77491 4.88363 1.77491 6.00807 1.77491 7.13252C1.77491 7.27583 1.7535 7.41914 1.74279 7.5845C1.61431 7.55143 1.53937 7.52938 1.46442 7.51836C0.747076 7.36402 -0.141576 7.92625 0.0190235 8.90738C0.629303 12.4902 1.16464 16.095 1.74279 19.6888C1.84986 20.3613 2.29954 20.7251 2.97406 20.7471C3.30597 20.7582 3.63787 20.7471 4.04472 20.7471C4.04472 21.3204 4.04472 21.8385 4.04472 22.3566C4.04472 23.1945 4.39804 23.7126 5.08327 23.911C5.74708 24.0984 6.32524 23.8228 6.7428 23.0953C7.11753 22.4448 7.50297 21.8054 7.84559 21.133C8.00619 20.8243 8.19891 20.7251 8.53081 20.7251C11.3467 20.7361 14.1518 20.7361 16.9677 20.7361C17.7385 20.7361 18.1561 20.3613 18.2739 19.5896C18.8413 16.0068 19.4195 12.424 19.9976 8.84124C20.094 8.26799 19.837 7.76089 19.2696 7.59553ZM16.1218 4.23321C16.9998 4.07888 17.0105 4.0899 17.0105 4.96079C17.0105 5.88681 16.9784 6.82385 17.0212 7.74986C17.0426 8.21287 16.8927 8.46642 16.4644 8.56564C16.3681 8.58768 16.2717 8.63178 16.1218 8.6869V4.23321ZM13.8841 8.86329C13.8841 7.02228 13.8841 5.1923 13.8841 3.35129C13.8841 2.756 13.8841 2.756 14.473 2.76702C14.5801 2.76702 14.6764 2.78907 14.8156 2.80009C14.8263 2.96545 14.837 3.10876 14.837 3.25208C14.837 5.03796 14.837 6.81282 14.837 8.59871C14.837 9.19401 14.837 9.19401 14.2803 9.31527C14.1625 9.33732 14.0554 9.35936 13.8841 9.38141V8.86329ZM11.7428 1.32288H12.6422C12.6529 1.51029 12.6636 1.67565 12.6636 1.85203C12.6636 4.20014 12.6636 6.53722 12.6636 8.88533C12.6636 9.70111 12.5993 9.75623 11.7428 9.67906V1.32288ZM9.58006 2.78907H10.4473V9.7893H9.58006V2.78907ZM7.41732 1.31185H8.26315V9.71213C7.98477 9.67906 7.71711 9.65701 7.41732 9.62394V1.31185ZM5.20104 2.78907H6.11111V9.35936C6.05758 9.37039 6.02545 9.38141 6.00404 9.37039C5.20104 9.21605 5.20104 9.21605 5.20104 8.37823V2.78907ZM3.48798 4.20014C3.69141 4.20014 3.96978 4.0899 3.96978 4.48676C3.95907 5.84271 3.96978 7.19866 3.95907 8.55461C3.95907 8.59871 3.93766 8.63178 3.91624 8.71997C3.65929 8.60973 3.39162 8.51052 3.15607 8.37823C3.08113 8.34516 3.02759 8.20185 3.02759 8.11365C3.01689 6.90102 3.01689 5.68838 3.01689 4.48676C3.00618 4.0899 3.28455 4.18911 3.48798 4.20014ZM18.4773 10.2633C18.0062 13.1847 17.5351 16.095 17.0854 19.0274C17.0319 19.3691 16.9034 19.4463 16.6036 19.4463C13.7985 19.4463 10.9826 19.4684 8.16679 19.4463C7.58863 19.4463 7.2246 19.6117 6.94623 20.1518C6.57149 20.9015 6.12181 21.6291 5.70426 22.3566C5.64002 22.4779 5.54366 22.5771 5.458 22.6874C5.40447 22.6653 5.36164 22.6543 5.30811 22.6322V21.3755C5.30811 21.0007 5.31882 20.6369 5.30811 20.2621C5.2974 19.7219 5.05115 19.4684 4.51582 19.4573C4.02331 19.4463 3.53081 19.4573 2.98477 19.4573C2.42802 15.9517 1.87127 12.4571 1.31453 8.99557C7.08541 11.8067 12.8456 11.9169 18.6486 9.0066C18.6058 9.39244 18.5522 9.8334 18.4773 10.2633Z" fill="#FFBC0D"></path><path d="M16.3466 13.1075C16.2823 13.5705 16.1967 14.0225 16.1003 14.4745C16.0147 14.8273 15.7042 15.0367 15.3723 14.9596C15.0297 14.8824 14.8584 14.6509 14.8584 14.1879C14.9333 13.78 14.9976 13.2729 15.1368 12.7878C15.2224 12.4681 15.5008 12.3248 15.8327 12.38C16.1432 12.4571 16.3894 12.7768 16.3466 13.1075Z" fill="#FFBC0D"></path><path d="M15.6614 16.8226C15.64 17.2746 15.3723 17.5942 14.9976 17.5832C14.6443 17.5722 14.3552 17.2525 14.3766 16.8777C14.398 16.4147 14.6657 16.1281 15.0511 16.1281C15.4366 16.1391 15.6828 16.4037 15.6614 16.8226Z" fill="#FFBC0D"></path></svg>