<svg xmlns:xlink="http://www.w3.org/1999/xlink" width="31" height="21" viewBox="0 0 31 21" fill="none" xmlns="http://www.w3.org/2000/svg"><g clip-path="url(#clip0_428_36)" fill="none"><path d="M14.9148 17.0856H26.6255C27.6368 17.0856 28.6068 17.4872 29.3226 18.2023C30.0384 18.9174 30.4415 19.8876 30.4434 20.8998H14.9148V17.0856Z" fill="#FFBC0D"></path><path d="M0.00767517 0H10.9048C10.9029 1.01226 10.4998 1.98243 9.78399 2.69754C9.0682 3.41264 8.09823 3.81425 7.0869 3.81425H0.00767517V0Z" fill="#FFBC0D"></path><path d="M16.4919 2.21562e-06H31.0071V3.79998H12.6669C12.6669 3.29848 12.7657 2.80191 12.9577 2.33868C13.1496 1.87544 13.431 1.45465 13.7856 1.10037C14.1402 0.74609 14.5611 0.465268 15.0243 0.274004C15.4874 0.0827405 15.9838 -0.0152147 16.4848 -0.0142755" fill="#FFBC0D"></path><path d="M3.81789 8.54285H31.0071V12.3714H0C0.00189035 11.3591 0.405001 10.389 1.12079 9.67386C1.83659 8.95876 2.80656 8.55712 3.81789 8.55712" fill="#FFBC0D"></path><path d="M0.107066 17.0856H20.3027V20.8998H3.88924C2.87791 20.8998 1.90794 20.4982 1.19214 19.7831C0.476351 19.068 0.0732404 18.0978 0.0713501 17.0856" fill="#FFBC0D"></path><path d="M23.1216 19.0141C23.3308 19.5353 23.6803 19.9882 24.1314 20.3223C24.5824 20.6565 25.1172 20.8589 25.6763 20.9069H30.4434C30.5074 20.9093 30.5712 20.8979 30.6304 20.8735C30.6897 20.8492 30.743 20.8125 30.787 20.7658C30.8309 20.7191 30.8643 20.6636 30.8851 20.6029C30.9058 20.5423 30.9134 20.4779 30.9073 20.4141C30.743 19.4654 30.2429 18.6076 29.4986 17.9977C28.7542 17.3878 27.8154 17.0665 26.8538 17.0927H21.523C22.2252 17.5706 22.7791 18.2364 23.1216 19.0141Z" fill="#DB0007"></path></g><defs><clipPath id="clip0_428_36"><rect width="31" height="20.907" fill="white"></rect></clipPath></defs></svg>