<svg xmlns:xlink="http://www.w3.org/1999/xlink" id="Layer_1" xmlns="http://www.w3.org/2000/svg" viewBox="0 0 583.35 383.16" class="inline-block h-5 w-auto mr-2" width="583.35"  height="383.16" ><g><path class="cls-1" style="" d="M286.18,45.16c-10.86,0-18.69,6.66-23.5,19.99-4.81,13.32-7.22,33.93-7.22,61.81,0,27.89,2.41,48.49,7.22,61.81,4.81,13.32,12.64,19.99,23.5,19.99,10.86,0,18.69-6.66,23.5-19.99,4.81-13.32,7.22-33.93,7.22-61.81,0-27.88-2.4-48.49-7.22-61.81-4.81-13.32-12.65-19.99-23.5-19.99Z" fill="none"></path><path class="cls-1" style="" d="M91.68,139.58c8.29-6.22,17.52-11.14,27.71-14.76,10.18-3.63,21.49-5.44,33.93-5.44,12.79,0,24.62,1.55,35.56,4.54,.2-18.07,2.11-34.45,5.81-49.09H96.34l-4.66,64.75Z" fill="none"></path><path class="cls-4" style="" d="M199.38,194.33c-7.03-19-10.55-41.46-10.55-67.37,0-1.03,.04-2.02,.05-3.04-10.94-2.99-22.77-4.54-35.56-4.54-12.43,0-23.75,1.81-33.93,5.44-10.19,3.63-19.42,8.55-27.71,14.76l4.66-64.75h98.34c1.34-5.3,2.9-10.39,4.69-15.24,7.03-19,17.77-33.68,32.2-44.05,4.1-2.95,8.55-5.43,13.26-7.53H26.93L13.47,204.32H83.91c10.01-18.65,25.04-27.97,45.07-27.97,12.43,0,22.79,4.92,31.08,14.76,8.29,9.84,12.43,24.78,12.43,44.81,0,18.31-3.81,32.37-11.4,42.21-7.6,9.84-18.13,14.76-31.59,14.76-12.78,0-22.53-3.11-29.27-9.32-6.73-6.22-11.31-15.71-13.72-28.49H0c3.45,31.08,16.49,55.51,39.11,73.29,22.61,17.79,52.22,26.68,88.83,26.68,27.97,0,52.31-4.92,73.03-14.76,20.72-9.84,36.78-23.99,48.17-42.47,8.3-13.46,13.54-28.73,15.8-45.77-12.74-2.34-23.88-6.86-33.36-13.67-14.43-10.36-25.17-25.04-32.2-44.05Z" fill="#FDBB20"></path><path class="cls-4" style="" d="M372.98,59.59c-7.03-19-17.77-33.68-32.2-44.05C326.34,5.18,308.14,0,286.18,0c-15.72,0-29.48,2.7-41.34,8.01h.17V74.83h-50.32c-3.69,14.64-5.61,31.02-5.81,49.09,8.56,2.34,16.58,5.54,24.01,9.7,16.92,9.5,30.04,22.71,39.37,39.62,9.32,16.92,13.98,36.61,13.98,59.05,0,6.84-.46,13.41-1.29,19.75,6.65,1.22,13.7,1.87,21.23,1.87,21.96,0,40.16-5.18,54.6-15.55,14.44-10.36,25.17-25.04,32.2-44.05,7.03-19,10.55-41.46,10.55-67.37,0-25.91-3.52-48.36-10.55-67.37Zm-63.29,129.18c-4.81,13.32-12.65,19.99-23.5,19.99-10.86,0-18.69-6.66-23.5-19.99-4.81-13.32-7.22-33.93-7.22-61.81,0-27.88,2.41-48.49,7.22-61.81,4.81-13.32,12.64-19.99,23.5-19.99,10.86,0,18.69,6.66,23.5,19.99,4.81,13.32,7.22,33.93,7.22,61.81,0,27.89-2.4,48.49-7.22,61.81Z" fill="#FDBB20"></path><path class="cls-3" style="" d="M199.38,59.59c-1.8,4.85-3.36,9.94-4.69,15.24h50.32V8.01h-.17c-4.71,2.11-9.15,4.59-13.26,7.53-14.43,10.36-25.17,25.05-32.2,44.05Z" fill="#FFD788"></path><path class="cls-3" style="" d="M252.25,173.24c-9.32-16.91-22.45-30.12-39.37-39.62-7.43-4.17-15.45-7.36-24.01-9.7-.01,1.02-.05,2.01-.05,3.04,0,25.91,3.52,48.37,10.55,67.37,7.03,19,17.77,33.68,32.2,44.05,9.48,6.81,20.63,11.34,33.36,13.67,.84-6.34,1.29-12.91,1.29-19.75,0-22.44-4.66-42.12-13.98-59.05Z" fill="#FFD788"></path></g><g><path class="cls-5" style="" d="M331,132.53c0-15.2-7.37-28.68-18.72-37.07-3.3,1.48-6.96,2.32-10.82,2.32-6.35,0-12.17-2.24-16.72-5.96v86.81c.06,0,.11,0,.17,0,25.45,0,46.09-20.63,46.09-46.09Z" fill="#6ABD45"></path><path class="cls-2" style="" d="M314.96,94.07c-.86,.51-1.75,.97-2.67,1.39,11.35,8.39,18.72,21.87,18.72,37.07,0,25.45-20.63,46.09-46.09,46.09-.06,0-.11,0-.17,0v35.01c35.12,0,63.59-28.47,63.59-63.59,0-24.19-13.5-45.21-33.38-55.97Z" fill="#ED1C29"></path><path class="cls-5" style="" d="M314.96,94.07c-16.91,9.45-30.22-2.26-30.22-2.26" fill="#6ABD45"></path></g><circle class="cls-5" style="" cx="301.46" cy="71.34" r="27.33" transform="translate(194.98 362.25) rotate(-83.21)" fill="#6ABD45"></circle><path class="cls-6" style="" d="M325.83,290.73c-19.88-21.2-32.44-46.71-37.84-73.54-3.41,39.87,9.09,80.4,38.02,111.26,55.37,59.06,149.97,60.32,211.3,2.83,24.28-22.76,39.7-51.32,46.04-81.19-8.38,15.84-19.53,30.63-33.41,43.64-65.04,60.98-165.38,59.64-224.11-3Z" fill="#9FCC3B"></path><path class="cls-5" style="" d="M287.17,216.32c-.45,.95-.9,1.9-1.33,2.86-26.7,59.52-1.89,128.61,55.43,154.33,26.46,11.87,55.21,12.42,81.14,3.72-18.84,.15-37.9-3.62-56.07-11.78-57.6-25.84-88.3-87.58-79.16-149.13Z" fill="#6ABD45"></path><path class="cls-5" style="" d="M286.76,214.76c.23,1.25,.47,2.51,.73,3.76,16.13,77.56,89.75,127.84,164.44,112.31,34.48-7.17,63.15-27.11,82.45-54.13-18.42,13.56-39.86,23.43-63.54,28.36-75.06,15.61-149.23-23.25-184.08-90.29Z" fill="#6ABD45"></path><g><path class="cls-7" style="" d="M480.06,239.32c0,5.5-1.46,10.01-4.36,13.51-2.91,3.5-7.04,5.25-12.39,5.25-4.25,0-7.75-1.12-10.5-3.36-2.75-2.24-4.91-5.19-6.49-8.85-1.57-3.66-2.69-7.63-3.36-11.91-.67-4.29-1.04-8.43-1.12-12.45h-1.3c-3.38,0-6,.65-7.84,1.95-1.85,1.3-2.77,3.17-2.77,5.6,0,2.05,.65,3.77,1.95,5.19,1.3,1.42,3.17,2.32,5.6,2.71v18.87c-6.29-1.02-11.19-3.93-14.69-8.73-3.5-4.8-5.25-11.05-5.25-18.76,0-8.96,2.22-15.59,6.67-19.88,4.44-4.29,11.11-6.43,19.99-6.43h34.33v17.93l-7.79,.47c2.91,2.05,5.19,4.78,6.84,8.2s2.48,6.98,2.48,10.68Zm-12.39-7.9c0-2.75-1.08-5.09-3.24-7.02-2.16-1.93-5.29-2.89-9.38-2.89h-4.6c.16,5.9,1.2,10.13,3.13,12.68,1.93,2.56,4.31,3.83,7.14,3.83,2.36,0,4.11-.61,5.25-1.83,1.14-1.22,1.71-2.81,1.71-4.78Z" fill="#0BAED2"></path><path class="cls-7" style="" d="M406.46,166.89c-1.02,1.34-1.73,2.36-2.12,3.07-.39,.71-.59,1.38-.59,2.01,0,1.73,2.24,2.99,6.72,3.77v10.97c-5.27-.31-9.73-1.69-13.39-4.13-3.66-2.44-5.49-5.7-5.49-9.79,0-2.12,.47-4.03,1.42-5.72,.94-1.69,2.05-3.32,3.3-4.9,1.02-1.34,1.73-2.36,2.12-3.07,.39-.71,.59-1.38,.59-2.01,0-1.73-2.24-2.99-6.72-3.77v-10.97c5.27,.32,9.73,1.69,13.39,4.13,3.66,2.44,5.48,5.7,5.48,9.79,0,2.12-.47,4.03-1.42,5.72-.94,1.69-2.04,3.32-3.3,4.9Zm72.07,26.42h-59.45v-17.93l9.08-.59c-3.22-1.49-5.8-3.83-7.73-7.02-1.93-3.19-2.89-6.98-2.89-11.38,0-6.37,1.95-11.38,5.84-15.04,3.89-3.66,9.14-5.49,15.75-5.49h39.4v20.05h-36.33c-3.14,0-5.64,.67-7.49,2.01-1.85,1.34-2.77,3.34-2.77,6.02,0,2.44,1.04,4.6,3.12,6.49,2.08,1.89,5.37,2.83,9.85,2.83h33.62v20.05Z" fill="#0BAED2"></path><path class="cls-7" style="" d="M480.06,100.13c0,6.37-1.38,11.85-4.13,16.46-2.75,4.6-6.47,8.14-11.15,10.62-4.68,2.48-10.01,3.72-15.98,3.72s-11.3-1.24-15.98-3.72c-4.68-2.48-8.39-6.02-11.15-10.62-2.75-4.6-4.13-10.08-4.13-16.46s1.38-11.85,4.13-16.46c2.75-4.6,6.47-8.14,11.15-10.62,4.68-2.48,10.01-3.72,15.98-3.72s11.31,1.24,15.98,3.72c4.68,2.48,8.4,6.02,11.15,10.62,2.75,4.6,4.13,10.09,4.13,16.46Zm-12.98,0c0-3.14-1.63-5.6-4.9-7.37-3.26-1.77-7.73-2.65-13.39-2.65s-10.12,.88-13.39,2.65c-3.26,1.77-4.9,4.23-4.9,7.37s1.63,5.6,4.9,7.37c3.26,1.77,7.73,2.65,13.39,2.65s10.13-.88,13.39-2.65c3.26-1.77,4.9-4.23,4.9-7.37Z" fill="#0BAED2"></path><path class="cls-7" style="" d="M480.06,39.26c0,8.42-1.75,15-5.25,19.76-3.5,4.76-8.51,7.49-15.04,8.2v-19.46c3.23-.39,5.45-1.45,6.67-3.19,1.22-1.73,1.83-3.58,1.83-5.54,0-2.28-.49-4.05-1.47-5.31-.98-1.26-2.22-1.89-3.72-1.89-1.34,0-2.59,.53-3.77,1.59s-2.16,3.05-2.95,5.96l-2.59,9.91c-1.34,5.11-3.38,9.1-6.13,11.97-2.75,2.87-6.57,4.31-11.44,4.31-4.17,0-7.63-1.18-10.38-3.54-2.75-2.36-4.82-5.54-6.19-9.55-1.38-4.01-2.06-8.53-2.06-13.56,0-7.39,1.65-13.25,4.95-17.58,3.3-4.32,8.06-7.04,14.27-8.14v19.35c-2.28,.32-4.09,1.06-5.43,2.24-1.34,1.18-2.01,2.87-2.01,5.07,0,2.05,.53,3.62,1.59,4.72,1.06,1.1,2.34,1.65,3.83,1.65,1.42,0,2.65-.47,3.71-1.42,1.06-.94,1.91-2.67,2.54-5.19l2.12-8.49c1.73-6.76,3.95-11.56,6.66-14.39,2.71-2.83,6.39-4.25,11.03-4.25,6.13,0,10.87,2.36,14.21,7.08,3.34,4.72,5.01,11.29,5.01,19.7Z" fill="#0BAED2"></path></g></svg>