<svg xmlns:xlink="http://www.w3.org/1999/xlink" xmlns="http://www.w3.org/2000/svg" width="208" height="71" viewBox="0 0 208 71" preserveAspectRatio="xMidYMid meet" style="width: 100%; height: 100%;"><defs><clipPath id="animationMask_rBhqQE095o"><rect width="208" height="71" x="0" y="0"></rect></clipPath></defs><g clip-path="url(#animationMask_rBhqQE095o)"><g transform="matrix(1,0,0,1,105.842,24.947)" opacity="1" style="user-select: none;"><path fill="#FFBC0D" fill-opacity="1" d="M0 0 M77.684,24.053 C90.939,24.053 101.684,13.308000000000002 101.684,0.053 C101.684,-13.202 90.939,-23.947 77.684,-23.947 C77.684,-23.947 -81.368,-23.947 -81.368,-23.947 C-94.62299999999999,-23.947 -105.368,-13.202 -105.368,0.053 C-105.368,13.308000000000002 -94.62299999999999,24.053 -81.368,24.053 C-81.368,24.053 -57.894999999999996,24.053 -53.421,24.053 C-48.947,24.053 -30.527,24.053 -26.053,24.053 C-21.579,24.053 -0.6579999999999995,24.053 4.474,24.053 C9.606,24.053 25,24.053 30,24.053 C35,24.053 53.684999999999995,24.053 57.632,24.053 C61.579,24.053 77.684,24.053 77.684,24.053z"></path></g><g transform="matrix(1,0,0,1,105.842,24.947)" opacity="1" style="user-select: none;"><path fill="#FFBC0D" fill-opacity="1" d="M0 0 M77.684,24.053 C90.939,24.053 101.684,13.308000000000002 101.684,0.053 C101.684,-13.202 90.939,-23.947 77.684,-23.947 C77.684,-23.947 -81.368,-23.947 -81.368,-23.947 C-94.62299999999999,-23.947 -105.368,-13.202 -105.368,0.053 C-105.368,13.308000000000002 -94.62299999999999,24.053 -81.368,24.053 C-81.368,24.053 -75.52,24.067 -69.204,24.067 C-49.87299999999999,24.067 -51.572,24.046 -48.927,24.046 C-47.467,24.046 -45.712999999999994,24.058 -36.364,24.058 C-28.462999999999997,24.058 1.5439999999999987,24.037 10.024,24.037 C21.043999999999997,24.037 41.045,24.021 58.15,24.021 C57.795,24.021 77.684,24.053 77.684,24.053z"></path></g><g transform="matrix(1,0,0,1,105.842,24.947)" opacity="1" style="user-select: none;"><path fill="#FFBC0D" fill-opacity="1" d="M0 0 M77.684,24.053 C90.939,24.053 101.684,13.308000000000002 101.684,0.053 C101.684,-13.202 90.939,-23.947 77.684,-23.947 C77.684,-23.947 -81.368,-23.947 -81.368,-23.947 C-94.62299999999999,-23.947 -105.368,-13.202 -105.368,0.053 C-105.368,13.308000000000002 -94.62299999999999,24.053 -81.368,24.053 C-81.368,24.053 -75.527,23.974 -69.211,23.974 C-53.717999999999996,23.974 -52.197,24.026 -44.302,24.026 C-35.322,24.026 -34.092,24.064 -21.743,24.064 C-2.4669999999999987,24.064 2.8900000000000006,24.051 18.684,24.051 C35.349000000000004,24.051 40.033,23.959 58.888,23.959 C58.533,23.959 77.684,24.053 77.684,24.053zM0 0 M7.674,24.053 C7.682,24.053 7.689,24.061 7.689,24.053 C7.697,24.053 8.752,24.069 8.752,24.053 C8.744000000000002,24.053 8.752,24.061 8.752,24.053 C8.744000000000002,24.061 7.658,24.045 7.674,24.053z"></path></g><g transform="matrix(1,0,0,1,105.842,24.947)" opacity="1" style="user-select: none;"><path fill="#FFBC0D" fill-opacity="1" d="M0 0 M77.684,24.053 C90.939,24.053 101.684,13.308000000000002 101.684,0.053 C101.684,-13.202 90.939,-23.947 77.684,-23.947 C77.684,-23.947 -81.368,-23.947 -81.368,-23.947 C-94.62299999999999,-23.947 -105.368,-13.202 -105.368,0.053 C-105.368,13.308000000000002 -94.62299999999999,24.053 -81.368,24.053 C-81.368,24.053 -57.894999999999996,24.053 -53.421,24.053 C-48.947,24.053 -30.527,24.053 -26.053,24.053 C-21.579,24.053 -0.6579999999999995,24.053 4.474,24.053 C9.606,24.053 25,24.053 30,24.053 C35,24.053 53.684999999999995,24.053 57.632,24.053 C61.579,24.053 77.684,24.053 77.684,24.053z"></path></g><g transform="matrix(1,0,0,1,105.842,24.947)" opacity="1" style="user-select: none;"><path fill="#FFBC0D" fill-opacity="1" d="M0 0 M77.684,24.053 C90.939,24.053 101.684,13.308000000000002 101.684,0.053 C101.684,-13.202 90.939,-23.947 77.684,-23.947 C77.684,-23.947 -81.368,-23.947 -81.368,-23.947 C-94.62299999999999,-23.947 -105.368,-13.202 -105.368,0.053 C-105.368,13.308000000000002 -94.62299999999999,24.053 -81.368,24.053 C-81.368,24.053 -66.895,24.053 -62.421,24.053 C-57.947,24.053 -42.902,24.053 -38.428,24.053 C-33.95399999999999,24.053 -18.283,24.053 -13.151,24.053 C-8.019,24.053 18.125,24.053 23.125,24.053 C28.125,24.053 61.185,24.053 65.132,24.053 C69.07900000000001,24.053 77.684,24.053 77.684,24.053z"></path></g></g></svg>